<svg width="31" height="35" viewBox="0 0 31 35" fill="none" xmlns="http://www.w3.org/2000/svg">
<path fill-rule="evenodd" clip-rule="evenodd" d="M27 35C29.2091 35 31 33.2091 31 31V5.52577C31 4.46335 30.5773 3.44456 29.8252 2.69416L28.296 1.16839C27.5998 0.473702 26.6741 0.061782 25.6973 0.00641427V9.61628C25.6973 11.2731 24.3542 12.6163 22.6973 12.6163H8.30259C6.64574 12.6163 5.30259 11.2731 5.30259 9.61628V3.33786e-06H25.476L25.4708 0H4C1.79086 0 0 1.79086 0 4V31C0 33.2091 1.79086 35 4 35H27ZM6.64706 15.4651C4.9902 15.4651 3.64706 16.8083 3.64706 18.4651V28.8399C3.64706 30.4968 4.99021 31.8399 6.64706 31.8399H24.3529C26.0098 31.8399 27.3529 30.4968 27.3529 28.8399V18.4651C27.3529 16.8083 26.0098 15.4651 24.3529 15.4651H6.64706Z" fill="white"/>
<rect x="17" width="6" height="10" fill="white"/>
</svg>
